<svg width="351" height="70" viewBox="0 0 351 70" fill="none" xmlns="http://www.w3.org/2000/svg">
<path d="M158.827 44.1716L156.285 47.1427H160.17L173.737 31.0802L187.061 47.1427H190.855L173.722 26.4921L158.827 44.1716ZM113.682 28.3568C113.682 39.7614 107.058 45.541 93.992 45.541C77.8451 45.541 74.461 36.1945 74.461 28.3568V0.0309325H71.5321V28.3568C71.5321 41.1618 79.7193 48.4734 93.992 48.4734C102.437 48.4734 116.611 45.8583 116.611 28.3568V0.0309325H113.682V28.3568ZM151.573 0.0309325H147.734L165.823 21.7879L144.941 46.5469L144.41 47.1736H148.257L169.662 21.8343L151.573 0.0309325ZM185.468 3.57457L188.503 0.0309325H184.588L173.775 12.7818L163.584 0.170216L163.478 0.0309325H159.753L173.714 17.37L185.468 3.57457ZM12.0881 0.0309325H9.15921V38.3145H45.2974V35.3434H12.0957L12.0881 0.0309325ZM94.0755 39.6453C99.7739 39.6453 103.575 38.4693 105.692 36.0475C107.582 33.8734 107.847 31.0648 107.847 28.3568V0.0309325H104.918V28.3568C104.918 32.2254 104.918 36.6742 94.0755 36.6742C84.0444 36.6742 83.2249 32.914 83.2249 28.3568V0.0309325H80.296V28.3568C80.296 34.2215 81.9729 39.6453 94.0831 39.6453H94.0755ZM3.31658 0.0309325H0.387695V47.1427H45.2974V44.1716H3.32418L3.31658 0.0309325ZM241.623 28.7359H257.474V25.7648H238.686V38.3145H272.642V35.3434H257.132H241.623V28.7359ZM200.044 0.0309325H196.098L177.728 21.7879L195.127 42.6783L198.875 47.1659H202.707L181.575 21.8266L200.044 0.0309325ZM347.62 0.0309325V47.1427H350.549V0.0309325H347.62ZM324.993 37.0843L310.577 16.0469H308.148V47.1427H311.077V22.0664L324.66 41.8968L324.963 42.3379L338.841 22.0664V47.1813H341.77V16.0469H339.41L324.993 37.0843ZM324.993 21.0915L310.41 0.0309325H306.783L324.993 26.2522L339.41 5.41603L343.166 0H339.562L324.993 21.0915ZM232.851 2.99429H271.632V0.0309325H229.899V47.1427H272.626V44.1716H232.851V2.99429ZM299.377 47.1427H302.306V0.0309325H299.377V47.1427ZM271.632 11.8611V8.91323H238.686V19.8923H257.466V16.9212H241.623V11.8843L271.632 11.8611Z" fill="white"/>
<path d="M140.221 69.7229L143.979 58.2892H141.882L139.125 67.0137L136.351 58.2892H134.142L137.931 69.7229H140.221Z" fill="white"/>
<path d="M144.839 69.7229H152.983V67.8361H146.919V64.7076H152.257V62.8369H146.919V60.176H152.983V58.2892H144.839V69.7229Z" fill="white"/>
<path d="M161.481 69.7229H163.625V58.2892H161.577V66.0299L156.691 58.2892H154.482V69.7229H156.53V61.8693L161.481 69.7229Z" fill="white"/>
<path d="M170.05 60.2244H173.437V58.2892H164.583V60.2244H167.97V69.7229H170.05V60.2244Z" fill="white"/>
<path d="M183.025 65.3365V58.2892H180.944V65.3043C180.944 66.1267 180.751 66.7879 180.364 67.2878C179.977 67.8039 179.364 68.0458 178.541 68.0458C177.703 68.0458 177.106 67.8039 176.719 67.2878C176.332 66.7879 176.139 66.1267 176.139 65.3043V58.2892H174.058V65.3365C174.058 66.0138 174.139 66.6428 174.332 67.2072C174.526 67.7716 174.8 68.2554 175.187 68.6586C175.558 69.0617 176.026 69.3681 176.59 69.5939C177.138 69.8197 177.8 69.9326 178.541 69.9326C179.283 69.9326 179.928 69.8197 180.493 69.5939C181.041 69.3681 181.509 69.0617 181.896 68.6586C182.267 68.2554 182.541 67.7716 182.734 67.2072C182.928 66.6428 183.025 66.0138 183.025 65.3365Z" fill="white"/>
<path d="M191.598 61.8371C191.598 62.3854 191.437 62.8046 191.114 63.0949C190.792 63.3852 190.324 63.5303 189.744 63.5303H186.97V60.1115H189.711C190.002 60.1115 190.26 60.1599 190.502 60.2567C190.727 60.3534 190.937 60.4663 191.098 60.6276C191.259 60.7888 191.372 60.9824 191.469 61.192C191.55 61.4016 191.598 61.6113 191.598 61.8371ZM191.421 69.7229H193.678L191.582 65.0462C192.211 64.8205 192.711 64.4173 193.098 63.8529C193.485 63.2884 193.678 62.6111 193.678 61.8371C193.678 61.3855 193.598 60.934 193.437 60.5147C193.275 60.0954 193.033 59.7084 192.711 59.3858C192.388 59.0633 191.969 58.7892 191.469 58.5956C190.969 58.4021 190.389 58.2892 189.711 58.2892H184.89V69.7229H186.986V65.401H189.518L191.421 69.7229Z" fill="white"/>
<path d="M195.036 69.7229H203.18V67.8361H197.116V64.7076H202.454V62.8369H197.116V60.176H203.18V58.2892H195.036V69.7229Z" fill="white"/>
<path d="M213 66.3202C213 65.8364 212.903 65.401 212.742 65.014C212.58 64.6269 212.355 64.3044 212.064 64.0303C211.774 63.7561 211.452 63.5303 211.065 63.3691C210.678 63.2078 210.274 63.0788 209.855 63.0143C209.468 62.9659 209.049 62.9175 208.597 62.8692C208.146 62.8369 207.726 62.7885 207.372 62.724C207.017 62.6756 206.743 62.5466 206.533 62.3531C206.307 62.1596 206.21 61.8693 206.21 61.4823C206.21 61.2726 206.243 61.0952 206.307 60.934C206.372 60.7888 206.469 60.6437 206.598 60.5147C206.823 60.2728 207.114 60.1115 207.452 60.0148C207.791 59.9341 208.13 59.8858 208.452 59.8858C208.758 59.8858 209.081 59.9503 209.42 60.047C209.742 60.1599 210 60.305 210.194 60.4986C210.323 60.6598 210.436 60.8372 210.532 61.0307C210.629 61.2243 210.678 61.4339 210.694 61.6274H212.822C212.806 61.1436 212.693 60.7082 212.484 60.2889C212.274 59.8858 212 59.5148 211.661 59.1923C211.274 58.8375 210.79 58.5634 210.226 58.3699C209.662 58.1763 209.081 58.0796 208.468 58.0796C207.791 58.0796 207.146 58.1925 206.565 58.4021C205.969 58.6279 205.485 58.9182 205.114 59.2891C204.807 59.5955 204.566 59.9341 204.388 60.305C204.195 60.6921 204.114 61.0952 204.114 61.5468C204.114 62.0306 204.179 62.4499 204.34 62.8208C204.501 63.1917 204.711 63.5142 204.969 63.7722C205.227 64.0303 205.533 64.2399 205.888 64.4012C206.243 64.5624 206.614 64.6753 207.017 64.7398C207.388 64.8043 207.807 64.8527 208.275 64.885C208.726 64.9172 209.162 64.9817 209.549 65.0462C209.903 65.1107 210.21 65.2559 210.484 65.4655C210.758 65.6752 210.903 65.9816 210.903 66.4009C210.903 66.6911 210.855 66.9008 210.774 67.062C210.678 67.2233 210.581 67.3684 210.452 67.4975C210.226 67.7232 209.952 67.8845 209.597 67.9813C209.242 68.078 208.855 68.1103 208.468 68.1103C208.13 68.1103 207.791 68.078 207.436 67.9974C207.081 67.9167 206.791 67.7555 206.549 67.4975C206.372 67.3362 206.227 67.1265 206.114 66.8846C206.001 66.6428 205.952 66.3847 205.952 66.0945H203.824C203.824 66.6428 203.937 67.1588 204.162 67.6103C204.388 68.0619 204.662 68.4489 205.017 68.7553C205.485 69.1907 206.017 69.4971 206.614 69.6745C207.21 69.8519 207.823 69.9326 208.436 69.9326C209.146 69.9326 209.807 69.8519 210.436 69.6584C211.065 69.4649 211.597 69.1585 212.048 68.7069C212.322 68.4328 212.548 68.0941 212.726 67.7071C212.903 67.3201 213 66.8685 213 66.3202Z" fill="white"/>
</svg>
